<?xml version="1.0" standalone="no"?>
<!DOCTYPE svg PUBLIC "-//W3C//DTD SVG 20010904//EN"
 "http://www.w3.org/TR/2001/REC-SVG-20010904/DTD/svg10.dtd">
<svg version="1.0" xmlns="http://www.w3.org/2000/svg"
 width="700.000000pt" height="700.000000pt" viewBox="0 0 700.000000 700.000000"
 preserveAspectRatio="xMidYMid meet">
<metadata>
Created by potrace 1.11, written by Peter Selinger 2001-2013
</metadata>
<g transform="translate(0.000000,700.000000) scale(0.100000,-0.100000)"
fill="#000000" stroke="none">
<path d="M175 6818 c-3 -7 -4 -1505 -3 -3328 l3 -3315 3325 0 3325 0 0 3325 0
3325 -3323 3 c-2653 2 -3324 0 -3327 -10z m2185 -1128 l0 -1050 -1050 0 -1050
0 0 1050 0 1050 1050 0 1050 0 0 -1050z m2190 0 l0 -1050 -1050 0 -1050 0 0
1050 0 1050 1050 0 1050 0 0 -1050z m2190 0 l0 -1050 -1050 0 -1050 0 0 1050
0 1050 1050 0 1050 0 0 -1050z m-4380 -2190 l0 -1050 -1050 0 -1050 0 0 1050
0 1050 1050 0 1050 0 0 -1050z m2190 0 l0 -1050 -1050 0 -1050 0 0 1050 0
1050 1050 0 1050 0 0 -1050z m2190 0 l0 -1050 -1050 0 -1050 0 0 1050 0 1050
1050 0 1050 0 0 -1050z m-4380 -2190 l0 -1050 -1050 0 -1050 0 0 1050 0 1050
1050 0 1050 0 0 -1050z m2190 0 l0 -1050 -1050 0 -1050 0 0 1050 0 1050 1050
0 1050 0 0 -1050z m2190 0 l0 -1050 -1050 0 -1050 0 0 1050 0 1050 1050 0
1050 0 0 -1050z"/>
<path d="M3353 6546 c-299 -57 -542 -251 -657 -525 -50 -116 -60 -177 -60
-336 0 -135 3 -159 28 -240 74 -241 232 -429 451 -535 150 -73 202 -85 385
-85 183 0 235 12 385 85 219 106 377 294 451 535 25 81 28 105 28 240 0 114
-4 165 -18 215 -43 154 -109 272 -215 383 -120 126 -254 206 -416 247 -103 27
-267 34 -362 16z"/>
<path d="M1130 4351 c-162 -35 -292 -105 -413 -220 -125 -119 -204 -251 -248
-416 -31 -114 -31 -316 0 -430 44 -165 123 -297 248 -416 176 -168 392 -248
638 -236 320 15 597 197 735 482 73 150 85 202 85 385 0 183 -12 235 -85 385
-106 220 -296 379 -535 450 -122 37 -301 43 -425 16z"/>
<path d="M1135 2165 c-393 -87 -665 -404 -691 -805 -11 -165 33 -345 123 -500
50 -85 208 -243 293 -293 411 -238 913 -126 1177 263 46 67 78 136 108 230 37
114 46 308 20 426 -74 339 -322 594 -658 674 -97 23 -278 26 -372 5z"/>
<path d="M3315 2164 c-311 -69 -557 -299 -651 -609 -25 -81 -28 -105 -28 -240
0 -114 4 -165 18 -215 43 -154 109 -272 215 -383 119 -125 251 -204 416 -248
114 -31 316 -31 430 0 266 72 485 261 589 510 50 116 60 177 60 336 0 135 -3
159 -28 240 -74 241 -232 429 -451 535 -55 27 -127 56 -160 65 -87 24 -320 29
-410 9z"/>
<path d="M5488 2160 c-335 -85 -580 -337 -653 -674 -26 -118 -17 -312 20 -426
71 -221 201 -386 395 -500 269 -159 609 -156 890 7 85 50 243 208 293 293 292
505 49 1123 -509 1291 -103 31 -331 36 -436 9z"/>
</g>
</svg>
